<svg preserveAspectRatio="none" width="100%" height="100%" overflow="visible" style="display: block;" viewBox="0 0 24 24" fill="none" xmlns="http://www.w3.org/2000/svg">
<g id="Icon">
<path id="Vector" d="M7 19H4.815C4.49957 19.0009 4.18925 18.9203 3.91417 18.7659C3.63909 18.6116 3.40858 18.3887 3.245 18.119C3.08791 17.8481 3.00485 17.5407 3.00414 17.2275C3.00344 16.9144 3.08513 16.6066 3.241 16.335L7.196 9.5" stroke="var(--stroke-0, white)" stroke-width="2" stroke-linecap="round" stroke-linejoin="round"/>
<path id="Vector_2" d="M11 19H19.203C19.5169 18.9976 19.8249 18.9144 20.0974 18.7586C20.3699 18.6027 20.5978 18.3794 20.759 18.11C20.9139 17.8399 20.9954 17.5339 20.9954 17.2225C20.9954 16.9111 20.9139 16.6051 20.759 16.335L19.533 14.215" stroke="var(--stroke-0, white)" stroke-width="2" stroke-linecap="round" stroke-linejoin="round"/>
<path id="Vector_3" d="M14 16L11 19L14 22" stroke="var(--stroke-0, white)" stroke-width="2" stroke-linecap="round" stroke-linejoin="round"/>
<path id="Vector_4" d="M8.293 13.596L7.196 9.5L3.1 10.598" stroke="var(--stroke-0, white)" stroke-width="2" stroke-linecap="round" stroke-linejoin="round"/>
<path id="Vector_5" d="M9.344 5.811L10.437 3.919C10.5939 3.6454 10.819 3.41701 11.0902 3.25599C11.3614 3.09497 11.6696 3.00679 11.985 3C12.2979 2.99942 12.6055 3.08116 12.8769 3.23703C13.1482 3.39289 13.3738 3.61739 13.531 3.888L17.474 10.731" stroke="var(--stroke-0, white)" stroke-width="2" stroke-linecap="round" stroke-linejoin="round"/>
<path id="Vector_6" d="M13.378 9.633L17.474 10.731L18.571 6.635" stroke="var(--stroke-0, white)" stroke-width="2" stroke-linecap="round" stroke-linejoin="round"/>
</g>
</svg>
