<svg preserveAspectRatio="none" width="100%" height="100%" overflow="visible" style="display: block;" viewBox="0 0 28 28" fill="none" xmlns="http://www.w3.org/2000/svg">
<g id="Icon">
<path id="Vector" d="M18.6667 24.5V22.1667C18.6667 20.929 18.175 19.742 17.2998 18.8668C16.4247 17.9917 15.2377 17.5 14 17.5H7C5.76232 17.5 4.57534 17.9917 3.70017 18.8668C2.825 19.742 2.33333 20.929 2.33333 22.1667V24.5" stroke="var(--stroke-0, white)" stroke-width="2.33333" stroke-linecap="round" stroke-linejoin="round"/>
<path id="Vector_2" d="M10.5 12.8333C13.0773 12.8333 15.1667 10.744 15.1667 8.16667C15.1667 5.58934 13.0773 3.5 10.5 3.5C7.92267 3.5 5.83333 5.58934 5.83333 8.16667C5.83333 10.744 7.92267 12.8333 10.5 12.8333Z" stroke="var(--stroke-0, white)" stroke-width="2.33333" stroke-linecap="round" stroke-linejoin="round"/>
<path id="Vector_3" d="M22.1667 9.33333V16.3333" stroke="var(--stroke-0, white)" stroke-width="2.33333" stroke-linecap="round" stroke-linejoin="round"/>
<path id="Vector_4" d="M25.6667 12.8333H18.6667" stroke="var(--stroke-0, white)" stroke-width="2.33333" stroke-linecap="round" stroke-linejoin="round"/>
</g>
</svg>
