<svg preserveAspectRatio="none" width="100%" height="100%" overflow="visible" style="display: block;" viewBox="0 0 32 32" fill="none" xmlns="http://www.w3.org/2000/svg">
<g id="Icon">
<path id="Vector" d="M9.33333 26.6667H22.6667" stroke="var(--stroke-0, #00A63E)" stroke-width="2.66667" stroke-linecap="round" stroke-linejoin="round"/>
<path id="Vector_2" d="M13.3333 26.6667C20.6667 23.3333 14.4 18.1333 17.3333 13.3333" stroke="var(--stroke-0, #00A63E)" stroke-width="2.66667" stroke-linecap="round" stroke-linejoin="round"/>
<path id="Vector_3" d="M12.6667 12.5333C14.1333 13.6 15.0667 15.4667 15.7333 17.4667C13.0667 18 11.0667 18 9.33333 17.0667C7.73333 16.2667 6.26667 14.5333 5.33333 11.4667C9.06667 10.8 11.2 11.4667 12.6667 12.5333Z" stroke="var(--stroke-0, #00A63E)" stroke-width="2.66667" stroke-linecap="round" stroke-linejoin="round"/>
<path id="Vector_4" d="M18.8 8C17.7834 9.58874 17.2721 11.4482 17.3333 13.3333C19.8667 13.2 21.7333 12.5333 23.0667 11.4667C24.4 10.1333 25.2 8.4 25.3333 5.33333C21.7333 5.46667 20 6.66667 18.8 8Z" stroke="var(--stroke-0, #00A63E)" stroke-width="2.66667" stroke-linecap="round" stroke-linejoin="round"/>
</g>
</svg>
