<svg preserveAspectRatio="none" width="100%" height="100%" overflow="visible" style="display: block;" viewBox="0 0 32 32" fill="none" xmlns="http://www.w3.org/2000/svg">
<g id="Icon">
<path id="Vector" d="M14.6667 26.6667C12.3254 26.6738 10.067 25.8007 8.33936 24.2206C6.61171 22.6404 5.54102 20.4687 5.33965 18.1361C5.13827 15.8036 5.82092 13.4805 7.2522 11.6277C8.68348 9.77483 10.7588 8.5276 13.0667 8.13333C20.6667 6.66667 22.6667 5.97333 25.3333 2.66667C26.6667 5.33333 28 8.24 28 13.3333C28 20.6667 21.6267 26.6667 14.6667 26.6667Z" stroke="var(--stroke-0, white)" stroke-width="2.66667" stroke-linecap="round" stroke-linejoin="round"/>
<path id="Vector_2" d="M2.66667 28C2.66667 24 5.13333 20.8533 9.44 20C12.6667 19.36 16 17.3333 17.3333 16" stroke="var(--stroke-0, white)" stroke-width="2.66667" stroke-linecap="round" stroke-linejoin="round"/>
</g>
</svg>
