<svg preserveAspectRatio="none" width="100%" height="100%" overflow="visible" style="display: block;" viewBox="0 0 32 32" fill="none" xmlns="http://www.w3.org/2000/svg">
<g id="Icon">
<path id="Vector" d="M22.6667 18.6667L26.6667 23.0667C26.8494 23.253 26.9734 23.4889 27.0233 23.7451C27.0732 24.0013 27.0469 24.2665 26.9475 24.5078C26.8481 24.7491 26.6801 24.956 26.4643 25.1027C26.2485 25.2495 25.9943 25.3297 25.7333 25.3333H6.26667C6.0057 25.3297 5.75154 25.2495 5.53571 25.1027C5.31988 24.956 5.15186 24.7491 5.05249 24.5078C4.95312 24.2665 4.92676 24.0013 4.97668 23.7451C5.0266 23.4889 5.15061 23.253 5.33333 23.0667L9.33333 18.6667H8.93333C8.67236 18.663 8.41821 18.5828 8.20238 18.4361C7.98655 18.2893 7.81853 18.0825 7.71916 17.8411C7.61978 17.5998 7.59342 17.3346 7.64335 17.0784C7.69327 16.8223 7.81728 16.5864 8 16.4L12 12H11.7333C11.461 12.0246 11.1877 11.9648 10.9505 11.8288C10.7132 11.6928 10.5235 11.4872 10.4071 11.2398C10.2907 10.9924 10.2531 10.7151 10.2996 10.4457C10.346 10.1762 10.4742 9.92752 10.6667 9.73333L16 4L21.3333 9.73333C21.5258 9.92752 21.654 10.1762 21.7004 10.4457C21.7469 10.7151 21.7093 10.9924 21.5929 11.2398C21.4765 11.4872 21.2868 11.6928 21.0495 11.8288C20.8123 11.9648 20.539 12.0246 20.2667 12H20L24 16.4C24.1827 16.5864 24.3067 16.8223 24.3567 17.0784C24.4066 17.3346 24.3802 17.5998 24.2808 17.8411C24.1815 18.0825 24.0135 18.2893 23.7976 18.4361C23.5818 18.5828 23.3276 18.663 23.0667 18.6667H22.6667Z" stroke="var(--stroke-0, white)" stroke-width="2.66667" stroke-linecap="round" stroke-linejoin="round"/>
<path id="Vector_2" d="M16 29.3333V25.3333" stroke="var(--stroke-0, white)" stroke-width="2.66667" stroke-linecap="round" stroke-linejoin="round"/>
</g>
</svg>
