<svg preserveAspectRatio="none" width="100%" height="100%" overflow="visible" style="display: block;" viewBox="0 0 20 20" fill="none" xmlns="http://www.w3.org/2000/svg">
<g id="Icon">
<path id="Vector" d="M5.83333 16.6667H14.1667" stroke="var(--stroke-0, white)" stroke-width="1.66667" stroke-linecap="round" stroke-linejoin="round"/>
<path id="Vector_2" d="M8.33333 16.6667C12.9167 14.5833 9 11.3333 10.8333 8.33333" stroke="var(--stroke-0, white)" stroke-width="1.66667" stroke-linecap="round" stroke-linejoin="round"/>
<path id="Vector_3" d="M7.91667 7.83333C8.83333 8.5 9.41667 9.66667 9.83333 10.9167C8.16667 11.25 6.91667 11.25 5.83333 10.6667C4.83333 10.1667 3.91667 9.08333 3.33333 7.16667C5.66667 6.75 7 7.16667 7.91667 7.83333Z" stroke="var(--stroke-0, white)" stroke-width="1.66667" stroke-linecap="round" stroke-linejoin="round"/>
<path id="Vector_4" d="M11.75 5C11.1147 5.99296 10.7951 7.15512 10.8333 8.33333C12.4167 8.25 13.5833 7.83333 14.4167 7.16667C15.25 6.33333 15.75 5.25 15.8333 3.33333C13.5833 3.41667 12.5 4.16667 11.75 5Z" stroke="var(--stroke-0, white)" stroke-width="1.66667" stroke-linecap="round" stroke-linejoin="round"/>
</g>
</svg>
